# xmcd
#
# Track frame offsets:
#	150
#	21240
#	39062
#	59442
#	80927
#	98952
#	115310
#	133812
#	159222
#	173462
#	193675
#	208340
#	228040
#	249725
#	266647
#	281722
#	296907
#
# Disc length: 4267 seconds
#
# Revision: 0
# Processed by: cddbd v1.5.2PL0 Copyright (c) Steve Scherf et al.
# Submitted via: audiograbber 1.83.01
#
DISCID=fa10a911
DTITLE=Sampler Country - The Prince of Egypt Nashville
DYEAR=1998
DGENRE=Country
TTITLE0=Wynonna - Freedom
TTITLE1=Travis, Randy and Linda Davis - Make it through
TTITLE2=Krauss, Alison - I give you to his heart
TTITLE3=Chapman, Steven Curtis - Heartbeat of hope
TTITLE4=Tillis, Pam - Milk and honey
TTITLE5=Gill, Vince - Once in awhile
TTITLE6=McCready, Mindy - Walk in glory
TTITLE7=Hill, Faith - Somewhere down the road
TTITLE8=Reba - Please be the one
TTITLE9=Black, Clint - Slavery, deliverance and faith
TTITLE10=Chapman, Beth Nielsen - Godspeed
TTITLE11=Alabama - The voice
TTITLE12=Chapman, Gary - You are my light 
TTITLE13=McAnally, Mac - The moving of the mountain
TTITLE14=Andrews, Jessica - I will be there for you
TTITLE15=Keith, Toby - I can't be a slave 
TTITLE16=Daniels, Charlie - Could it be me
EXTD=
EXTT0=
EXTT1=
EXTT2=
EXTT3=
EXTT4=
EXTT5=
EXTT6=
EXTT7=
EXTT8=
EXTT9=
EXTT10=
EXTT11=
EXTT12=
EXTT13=
EXTT14=
EXTT15=
EXTT16=
PLAYORDER=
